<?xml version="1.0" encoding="UTF-8" standalone="no"?>
<!DOCTYPE svg PUBLIC "-//W3C//DTD SVG 1.1//EN" "http://www.w3.org/Graphics/SVG/1.1/DTD/svg11.dtd">
<svg width="100%" height="100%" viewBox="0 0 2804 3010" version="1.1" xmlns="http://www.w3.org/2000/svg" xmlns:xlink="http://www.w3.org/1999/xlink" xml:space="preserve" xmlns:serif="http://www.serif.com/" style="fill-rule:evenodd;clip-rule:evenodd;stroke-linejoin:round;stroke-miterlimit:2;">
    <g transform="matrix(1,0,0,1,780.628,-703.071)">
        <g id="standing-8" transform="matrix(4.41273,-2.34671,2.34671,4.41273,621,2208)">
            <g transform="matrix(1,0,0,1,-190,-240)">
                <g id="A-Human-Standing" serif:id="A-Human/Standing" transform="matrix(1,0,0,1,40,27)">
                    <g id="Head-Front-Long" serif:id="Head/Front/Long" transform="matrix(1,0,0,1,82,0)">
                        <path id="Hair-Back" d="M95.762,45.29C99.209,57.992 103.701,86.544 99.117,91.022L70.117,91.022C70.114,90.971 70.111,90.92 70.109,90.868C59.36,89.679 51,80.566 51,69.5L51,48.5C51,36.626 60.626,27 72.5,27L74.5,27C85.283,27 94.212,34.939 95.762,45.29Z"/>
                        <g id="Head" transform="matrix(1,0,0,1,54,31)">
                            <path d="M8.262,34.49C3.654,29.081 0.536,22.453 1.057,15.025C2.558,-6.375 32.349,-1.667 38.143,9.134C43.938,19.935 43.25,47.333 35.76,49.263C32.774,50.033 26.411,48.147 19.935,44.244L24,73L0,73L8.262,34.49Z" style="fill:rgb(212,161,129);"/>
                        </g>
                        <path id="Hair-Front" d="M68.75,61.875C69.856,73.753 69.413,87.317 66.117,90.537L37.117,90.537C35.501,62.463 51.117,73.335 51.117,46.903C52.091,45.952 53.011,45.01 53.921,44.198L53.889,43.421C58.911,33.14 65.281,28 73.001,28C84.581,28 88.237,33.388 91.349,37.963C89.022,45.948 79.99,47.132 71.966,52.11C71.02,51.341 69.814,50.88 68.5,50.88C65.462,50.88 63,53.343 63,56.38C63,59.418 65.462,61.88 68.5,61.88C68.584,61.88 68.667,61.879 68.75,61.875Z"/>
                    </g>
                    <g id="Bottom-Standing-Skirt" serif:id="Bottom/Standing/Skirt" transform="matrix(1,0,0,1,0,187)">
                        <path id="Skirt-Shadow" d="M97.408,98.088C121.397,104.798 142.094,108.153 159.5,108.153C176.905,108.153 193.072,102.986 208,92.653C184.524,85.766 165.191,82.323 150,82.323C134.809,82.323 117.278,87.578 97.408,98.088Z" style="fill:rgb(116,85,0);"/>
                        <path id="Leg" d="M180.267,117.824C180.036,117.477 179.84,117.098 179.685,116.689C176.479,108.208 125.117,16.726 120,0L177.826,0C181.717,12.717 199.227,92.52 201.691,108.442C209.467,133.557 225.475,214.895 227.519,220.53C229.669,226.458 217.572,232.633 214.349,225.346C209.22,213.75 196.999,181.665 191.557,162.074C186.456,143.708 182.302,127.185 180.267,117.824Z" style="fill:rgb(186,139,114);"/>
                        <path id="Leg1" serif:id="Leg" d="M132.957,128.994C109.475,134.928 23.584,145.658 17.69,147.341C11.626,149.072 6.31,136.574 13.805,133.867C25.73,129.559 58.589,119.606 78.512,115.544C94.536,112.277 109.159,109.611 118.976,108.05C118.145,80.473 114.343,14.294 116.835,0L168,0C165.61,13.707 145.41,113.718 141.656,123.729C140.464,127.302 136.909,128.882 132.957,128.994Z" style="fill:rgb(212,161,129);"/>
                        <g id="shoe" transform="matrix(0.173648,0.984808,-0.984808,0.173648,38.8999,123.49)">
                            <path d="M2.678,25.402C1.559,28.388 1,30.623 1,32.106C1,33.909 1.3,36.54 1.901,40L58.303,40C59.769,35.155 58.923,32.539 55.765,32.152C52.607,31.766 49.984,31.417 47.895,31.106L21.68,19.419C21.176,19.194 20.584,19.421 20.359,19.925C20.356,19.934 20.352,19.942 20.348,19.951L18.663,24.039C15.74,25.403 13.364,26.085 11.537,26.085C10.052,26.085 8.001,25.485 5.384,24.285L5.384,24.285C4.38,23.825 3.193,24.266 2.733,25.27C2.713,25.313 2.695,25.357 2.678,25.402Z" style="fill:rgb(228,228,228);"/>
                        </g>
                        <g id="shoe1" serif:id="shoe" transform="matrix(1,0,0,1,208,199)">
                            <path d="M2.678,25.402C1.559,28.388 1,30.623 1,32.106C1,33.909 1.3,36.54 1.901,40L58.303,40C59.769,35.155 58.923,32.539 55.765,32.152C52.607,31.766 49.984,31.417 47.895,31.106L21.68,19.419C21.176,19.194 20.584,19.421 20.359,19.925C20.356,19.934 20.352,19.942 20.348,19.951L18.663,24.039C15.74,25.403 13.364,26.085 11.537,26.085C10.052,26.085 8.001,25.485 5.384,24.285L5.384,24.285C4.38,23.825 3.193,24.266 2.733,25.27C2.713,25.313 2.695,25.357 2.678,25.402Z" style="fill:rgb(228,228,228);"/>
                        </g>
                        <path id="Skirt" d="M117,0C139.547,-6.451 160.88,-6.451 181,0C188,31.937 205.009,44.613 208,93.579C174,110.473 132,81.53 97,98.005C87,74.961 101,19.465 117,0Z" style="fill:rgb(252,187,4);"/>
                    </g>
                    <g id="Body-Long-Sleeve" serif:id="Body/Long-Sleeve" transform="matrix(1,0,0,1,22,82)">
                        <path id="Skin" d="M192,65.311L231.483,59.925C239.381,55.532 246.647,52.558 253.281,51.003C255.147,50.948 258.117,51.627 253.693,55.315C249.269,59.003 244.78,63.083 245.569,65.051C246.357,67.02 250.471,66.287 251.153,69.315C251.607,71.333 244.93,71.661 231.121,70.299L199.084,83L192,65.311ZM67.97,74.45L89.867,74.532C65.856,128.566 53.336,156.857 52.308,159.406C49.994,165.14 54.891,173.874 56.985,178.567C50.165,181.619 50.891,170.317 42.288,174.319C34.435,177.973 28.462,184.592 19.389,178.994C18.274,178.306 17.051,175.715 20.005,173.69C27.362,168.645 37.965,159.815 39.398,156.908C41.352,152.945 50.876,125.459 67.97,74.45Z" style="fill:rgb(212,161,129);"/>
                        <g id="Clothes-Back" transform="matrix(0.996195,0.0871557,-0.0871557,0.996195,5.78843,-15.3939)">
                            <path d="M123.474,9.669L140.653,9.313C148.189,47.001 173.204,69.034 223.79,56.408L234.893,104.819C187.489,115.21 143.761,99.694 130.596,48.475C127.188,35.216 124.201,21.368 123.474,9.669Z" style="fill:rgb(128,128,128);"/>
                        </g>
                        <path id="Clothes" d="M119.491,0.016L145.468,5.965C145.468,50.644 159.7,79.15 167,112L96.844,112C95.855,123.351 95.248,135.018 94.932,147L42.402,147C54.305,83.664 79.43,34.664 117.776,0L119.477,0L119.491,0.016Z" style="fill:rgb(229,229,229);"/>
                        <path id="Shade" d="M107.912,48.259C106.543,69.341 106.821,86.642 108.744,100.162C109.361,104.497 110.147,108.443 111.102,112L96.844,112C98.801,89.514 102.256,68.267 107.912,48.259L107.912,48.259Z" style="fill:rgb(128,128,128);fill-opacity:0.1;"/>
                    </g>
                </g>
            </g>
        </g>
    </g>
</svg>
